<?xml version="1.0" encoding="UTF-8" standalone="no"?>
<!-- Uploaded to: SVG Repo, www.svgrepo.com, Generator: SVG Repo Mixer Tools -->

<svg
   width="800px"
   height="800px"
   viewBox="0 0 24 24"
   fill="none"
   version="1.1"
   id="svg31"
   sodipodi:docname="logo-prim.svg"
   inkscape:version="1.2.1 (9c6d41e410, 2022-07-14)"
   xmlns:inkscape="http://www.inkscape.org/namespaces/inkscape"
   xmlns:sodipodi="http://sodipodi.sourceforge.net/DTD/sodipodi-0.dtd"
   xmlns="http://www.w3.org/2000/svg"
   xmlns:svg="http://www.w3.org/2000/svg">
  <defs
     id="defs35" />
  <sodipodi:namedview
     id="namedview33"
     pagecolor="#ffffff"
     bordercolor="#666666"
     borderopacity="1.0"
     inkscape:showpageshadow="2"
     inkscape:pageopacity="0.0"
     inkscape:pagecheckerboard="0"
     inkscape:deskcolor="#d1d1d1"
     showgrid="false"
     inkscape:zoom="1.0175"
     inkscape:cx="376.41278"
     inkscape:cy="400"
     inkscape:window-width="1920"
     inkscape:window-height="1017"
     inkscape:window-x="-8"
     inkscape:window-y="-8"
     inkscape:window-maximized="1"
     inkscape:current-layer="svg31" />
  <path
     d="M20.3873 7.1575L11.9999 12L3.60913 7.14978"
     stroke="#000000"
     stroke-width="2"
     stroke-linecap="round"
     stroke-linejoin="round"
     id="path23" />
  <path
     d="M12 12V21"
     stroke="#000000"
     stroke-width="2"
     stroke-linecap="round"
     stroke-linejoin="round"
     id="path25" />
  <path
     d="M11 2.57735C11.6188 2.22008 12.3812 2.22008 13 2.57735L19.6603 6.42265C20.2791 6.77992 20.6603 7.44017 20.6603 8.1547V15.8453C20.6603 16.5598 20.2791 17.2201 19.6603 17.5774L13 21.4226C12.3812 21.7799 11.6188 21.7799 11 21.4226L4.33975 17.5774C3.72094 17.2201 3.33975 16.5598 3.33975 15.8453V8.1547C3.33975 7.44017 3.72094 6.77992 4.33975 6.42265L11 2.57735Z"
     stroke="#000000"
     stroke-width="2"
     stroke-linecap="round"
     stroke-linejoin="round"
     id="path27" />
  <path
     d="M8.5 4.5L16 9"
     stroke="#000000"
     stroke-width="2"
     stroke-linecap="round"
     stroke-linejoin="round"
     id="path29" />
  <path
     style="fill:#ffe6d5;stroke-width:0.982801"
     d="m 320.88452,648.57775 c -24.59459,-14.26535 -70.96896,-41.09259 -103.05416,-59.61609 -32.0852,-18.52351 -60.03959,-35.13502 -62.12089,-36.91446 -2.14839,-1.83682 -5.18271,-6.076 -7.01955,-9.80685 l -3.23537,-6.57149 -0.26445,-121.64279 c -0.14544,-66.90352 -0.0106,-121.64278 0.29954,-121.64278 0.3102,0 50.07293,28.61867 110.58385,63.59703 l 110.01988,63.59704 v 127.55776 c 0,70.15676 -0.11057,127.51768 -0.2457,127.46868 -0.13514,-0.0489 -20.36855,-11.76071 -44.96315,-26.02605 z"
     id="path212"
     transform="scale(0.03)" />
  <path
     style="fill:#ffe6d5;stroke-width:0.982801"
     d="M 433.90663,547.10483 V 419.61874 l 109.71434,-63.37202 c 60.34289,-34.85462 110.09719,-63.51945 110.56511,-63.69963 1.28207,-0.49367 1.095,236.4385 -0.19141,242.43682 -1.44744,6.74916 -6.48345,14.73854 -11.73423,18.61575 -3.77603,2.78823 -37.18025,22.20005 -186.48648,108.37073 l -21.86733,12.62052 z"
     id="path214"
     transform="scale(0.03)" />
  <path
     style="fill:#ffe6d5;stroke-width:0.982801"
     d="M 290.18518,297.3519 C 229.78702,262.457 180.36442,233.63372 180.35716,233.30016 c -0.0165,-0.76037 87.15763,-51.18604 88.78396,-51.35685 1.35811,-0.14264 215.87117,128.28432 215.87117,129.24004 0,0.34292 -8.07126,5.27141 -17.93612,10.9522 -9.86487,5.68078 -28.99263,16.7036 -42.50615,24.49516 L 400,360.79716 Z"
     id="path216"
     transform="scale(0.03)" />
  <path
     style="fill:#ff6000;stroke-width:0.982801;fill-opacity:1"
     d="m 445.03245,207.36456 -108.27083,-64.96232 24.78802,-14.34771 c 30.73529,-17.79008 35.29737,-19.34132 46.81892,-15.91979 5.21478,1.54862 211.28746,119.76333 211.28746,121.2062 0,0.3844 -6.9656,4.7102 -15.47912,9.61287 -8.51351,4.90267 -23.44288,13.51725 -33.17636,19.14351 l -17.69726,10.22956 z"
     id="path218"
     transform="scale(0.03)" />
  <path
     style="fill:#ff6000;fill-opacity:1;stroke-width:0.982801"
     d="m 383.78378,351.00202 c -8.64864,-5.03715 -52.43243,-30.40158 -97.29729,-56.3654 -101.21988,-58.57714 -104.63188,-60.57873 -104.65196,-61.39224 -0.015,-0.6062 44.94986,-27.05045 74.81081,-43.99695 l 12.4193,-7.04812 14.60773,8.55052 c 33.79044,19.77899 155.61569,92.77226 195.68881,117.24964 2.2973,1.40323 4.1769,2.86936 4.1769,3.25805 0,0.38871 -5.19656,3.76022 -11.54791,7.49226 -20.01517,11.76086 -70.15094,40.57543 -71.34127,41.00202 -0.62716,0.22477 -8.21647,-3.71264 -16.86512,-8.74978 z"
     id="path1695"
     transform="scale(0.03)" />
  <path
     style="fill:#ff6000;fill-opacity:1;stroke-width:0.982801"
     d="M 280.09828,624.51295 C 233.34152,597.45579 186.08517,569.93979 175.08416,563.36629 154.17113,550.87 152.78902,549.66432 147.55464,539.35119 l -2.10009,-4.13775 V 414.18462 c 0,-96.42677 0.24972,-120.93014 1.2285,-120.54337 1.51793,0.59983 46.37238,26.37922 144.01702,82.77153 l 74.87672,43.24324 0.0126,127.02703 c 0.007,69.86486 -0.098,127.02651 -0.23311,127.02588 -0.13514,-6.2e-4 -38.50123,-22.13881 -85.25799,-49.19598 z"
     id="path1697"
     transform="scale(0.03)" />
  <path
     style="fill:#ff6000;fill-opacity:1;stroke-width:0.982801"
     d="m 434.41833,546.74105 0.0203,-127.08503 109.31632,-63.0232 109.31631,-63.0232 0.80062,2.96331 c 0.44034,1.62982 0.66147,56.08363 0.4914,121.00846 l -0.30922,118.04515 -2.6626,5.4054 c -5.45249,11.06923 3.13077,5.61979 -130.01553,82.54576 -47.02703,27.1701 -85.83538,49.59104 -86.24078,49.82429 -0.40541,0.23324 -0.72797,-56.76417 -0.71681,-126.66094 z"
     id="path1699"
     transform="scale(0.03)" />
</svg>
